<svg width="16" height="14" viewBox="0 0 16 14" fill="none" xmlns="http://www.w3.org/2000/svg">
<path d="M0 0.65625C0 0.292578 0.290077 0 0.650641 0H1.88415C2.48057 0 3.00921 0.35 3.25592 0.875H14.3981C15.1111 0.875 15.6317 1.55859 15.4446 2.25312L14.3331 6.41758C14.1026 7.27617 13.33 7.875 12.4489 7.875H4.62768L4.77408 8.6543C4.83372 8.96328 5.10211 9.1875 5.41388 9.1875H13.2297C13.5903 9.1875 13.8803 9.48008 13.8803 9.84375C13.8803 10.2074 13.5903 10.5 13.2297 10.5H5.41388C4.47587 10.5 3.6707 9.82734 3.4972 8.90039L2.09832 1.49023C2.07934 1.38633 1.98988 1.3125 1.88415 1.3125H0.650641C0.290077 1.3125 0 1.01992 0 0.65625ZM3.47009 12.6875C3.47009 12.5151 3.50374 12.3445 3.56914 12.1852C3.63454 12.026 3.73039 11.8813 3.85122 11.7594C3.97206 11.6375 4.11551 11.5409 4.27339 11.4749C4.43127 11.4089 4.60048 11.375 4.77137 11.375C4.94225 11.375 5.11147 11.4089 5.26935 11.4749C5.42723 11.5409 5.57068 11.6375 5.69151 11.7594C5.81235 11.8813 5.9082 12.026 5.9736 12.1852C6.03899 12.3445 6.07265 12.5151 6.07265 12.6875C6.07265 12.8599 6.03899 13.0305 5.9736 13.1898C5.9082 13.349 5.81235 13.4937 5.69151 13.6156C5.57068 13.7375 5.42723 13.8341 5.26935 13.9001C5.11147 13.9661 4.94225 14 4.77137 14C4.60048 14 4.43127 13.9661 4.27339 13.9001C4.11551 13.8341 3.97206 13.7375 3.85122 13.6156C3.73039 13.4937 3.63454 13.349 3.56914 13.1898C3.50374 13.0305 3.47009 12.8599 3.47009 12.6875ZM12.5791 11.375C12.9242 11.375 13.2552 11.5133 13.4992 11.7594C13.7432 12.0056 13.8803 12.3394 13.8803 12.6875C13.8803 13.0356 13.7432 13.3694 13.4992 13.6156C13.2552 13.8617 12.9242 14 12.5791 14C12.2339 14 11.903 13.8617 11.6589 13.6156C11.4149 13.3694 11.2778 13.0356 11.2778 12.6875C11.2778 12.3394 11.4149 12.0056 11.6589 11.7594C11.903 11.5133 12.2339 11.375 12.5791 11.375ZM6.83173 4.375C6.83173 4.67578 7.07572 4.92188 7.37393 4.92188H8.56677V6.125C8.56677 6.42578 8.81076 6.67188 9.10897 6.67188C9.40718 6.67188 9.65117 6.42578 9.65117 6.125V4.92188H10.844C11.1422 4.92188 11.3862 4.67578 11.3862 4.375C11.3862 4.07422 11.1422 3.82812 10.844 3.82812H9.65117V2.625C9.65117 2.32422 9.40718 2.07812 9.10897 2.07812C8.81076 2.07812 8.56677 2.32422 8.56677 2.625V3.82812H7.37393C7.07572 3.82812 6.83173 4.07422 6.83173 4.375Z" fill="#317172"/>
</svg>
