<svg width="16" height="14" viewBox="0 0 16 14" fill="none" xmlns="http://www.w3.org/2000/svg">
<path d="M0 0.65625C0 0.292578 0.287934 0 0.645834 0H1.87023C2.46224 0 2.98698 0.35 3.23186 0.875H14.2918C14.9995 0.875 15.5162 1.55859 15.3305 2.25312L14.2272 6.41758C13.9984 7.27617 13.2315 7.875 12.3569 7.875H4.59349L4.7388 8.6543C4.79801 8.96328 5.06441 9.1875 5.37387 9.1875H13.1319C13.4898 9.1875 13.7778 9.48008 13.7778 9.84375C13.7778 10.2074 13.4898 10.5 13.1319 10.5H5.37387C4.4428 10.5 3.64358 9.82734 3.47136 8.90039L2.08281 1.49023C2.06398 1.38633 1.97517 1.3125 1.87023 1.3125H0.645834C0.287934 1.3125 0 1.01992 0 0.65625ZM3.44445 12.6875C3.44445 12.5151 3.47786 12.3445 3.54277 12.1852C3.60768 12.026 3.70282 11.8813 3.82277 11.7594C3.94271 11.6375 4.0851 11.5409 4.24181 11.4749C4.39853 11.4089 4.56649 11.375 4.73611 11.375C4.90574 11.375 5.0737 11.4089 5.23041 11.4749C5.38712 11.5409 5.52952 11.6375 5.64946 11.7594C5.7694 11.8813 5.86455 12.026 5.92946 12.1852C5.99437 12.3445 6.02778 12.5151 6.02778 12.6875C6.02778 12.8599 5.99437 13.0305 5.92946 13.1898C5.86455 13.349 5.7694 13.4937 5.64946 13.6156C5.52952 13.7375 5.38712 13.8341 5.23041 13.9001C5.0737 13.9661 4.90574 14 4.73611 14C4.56649 14 4.39853 13.9661 4.24181 13.9001C4.0851 13.8341 3.94271 13.7375 3.82277 13.6156C3.70282 13.4937 3.60768 13.349 3.54277 13.1898C3.47786 13.0305 3.44445 12.8599 3.44445 12.6875ZM12.4861 11.375C12.8287 11.375 13.1572 11.5133 13.3995 11.7594C13.6417 12.0056 13.7778 12.3394 13.7778 12.6875C13.7778 13.0356 13.6417 13.3694 13.3995 13.6156C13.1572 13.8617 12.8287 14 12.4861 14C12.1435 14 11.815 13.8617 11.5728 13.6156C11.3305 13.3694 11.1944 13.0356 11.1944 12.6875C11.1944 12.3394 11.3305 12.0056 11.5728 11.7594C11.815 11.5133 12.1435 11.375 12.4861 11.375Z" fill="#317172"/>
</svg>
